{
	"asset":{
		"generator":"Khronos glTF Blender I/O v3.6.27",
		"version":"2.0"
	},
	"extensionsUsed":[
		"KHR_materials_specular"
	],
	"scene":0,
	"scenes":[
		{
			"name":"Scene",
			"nodes":[
				7
			]
		}
	],
	"nodes":[
		{
			"name":"Bone.001",
			"rotation":[
				-4.301339185275744e-22,
				7.395945853149147e-22,
				1.1918439923874757e-07,
				1
			],
			"translation":[
				1.4210858103333793e-14,
				0.7501602172851562,
				-7.105428204633949e-15
			]
		},
		{
			"name":"Leg.L",
			"rotation":[
				-1.0743836193938567e-22,
				2.117582368135751e-22,
				1,
				1.0587911840678754e-22
			],
			"translation":[
				-1.4210854715202004e-14,
				3.3881317890172014e-21,
				-0.12502671778202057
			]
		},
		{
			"name":"Leg.R",
			"rotation":[
				-1.0743836193938567e-22,
				2.117582368135751e-22,
				1,
				1.0587911840678754e-22
			],
			"translation":[
				-1.4210854715202004e-14,
				3.3881317890172014e-21,
				0.12502671778202057
			]
		},
		{
			"name":"Arm.L",
			"rotation":[
				-1.0743836193938567e-22,
				2.117582368135751e-22,
				1,
				1.0587911840678754e-22
			],
			"translation":[
				-8.808020623973789e-08,
				0.649421751499176,
				-0.3750801682472229
			]
		},
		{
			"name":"Arm.R",
			"rotation":[
				-1.0743836193938567e-22,
				2.117582368135751e-22,
				1,
				1.0587911840678754e-22
			],
			"translation":[
				-2.4174119062081445e-07,
				0.649421751499176,
				0.3750801682472229
			]
		},
		{
			"children":[
				0,
				1,
				2,
				3,
				4
			],
			"name":"Bone",
			"rotation":[
				6.339205071981269e-08,
				-7.105431592765738e-15,
				1.1918358922002881e-07,
				1
			]
		},
		{
			"mesh":0,
			"name":"Steve_02 - Default_0",
			"skin":0
		},
		{
			"children":[
				6,
				5
			],
			"name":"Armature"
		}
	],
	"animations":[
		{
			"channels":[
				{
					"sampler":0,
					"target":{
						"node":5,
						"path":"translation"
					}
				},
				{
					"sampler":1,
					"target":{
						"node":5,
						"path":"rotation"
					}
				},
				{
					"sampler":2,
					"target":{
						"node":5,
						"path":"scale"
					}
				},
				{
					"sampler":3,
					"target":{
						"node":0,
						"path":"translation"
					}
				},
				{
					"sampler":4,
					"target":{
						"node":0,
						"path":"rotation"
					}
				},
				{
					"sampler":5,
					"target":{
						"node":0,
						"path":"scale"
					}
				},
				{
					"sampler":6,
					"target":{
						"node":1,
						"path":"translation"
					}
				},
				{
					"sampler":7,
					"target":{
						"node":1,
						"path":"rotation"
					}
				},
				{
					"sampler":8,
					"target":{
						"node":1,
						"path":"scale"
					}
				},
				{
					"sampler":9,
					"target":{
						"node":2,
						"path":"translation"
					}
				},
				{
					"sampler":10,
					"target":{
						"node":2,
						"path":"rotation"
					}
				},
				{
					"sampler":11,
					"target":{
						"node":2,
						"path":"scale"
					}
				},
				{
					"sampler":12,
					"target":{
						"node":3,
						"path":"translation"
					}
				},
				{
					"sampler":13,
					"target":{
						"node":3,
						"path":"rotation"
					}
				},
				{
					"sampler":14,
					"target":{
						"node":3,
						"path":"scale"
					}
				},
				{
					"sampler":15,
					"target":{
						"node":4,
						"path":"translation"
					}
				},
				{
					"sampler":16,
					"target":{
						"node":4,
						"path":"rotation"
					}
				},
				{
					"sampler":17,
					"target":{
						"node":4,
						"path":"scale"
					}
				}
			],
			"name":"hand_Interact",
			"samplers":[
				{
					"input":7,
					"interpolation":"STEP",
					"output":8
				},
				{
					"input":7,
					"interpolation":"STEP",
					"output":9
				},
				{
					"input":7,
					"interpolation":"STEP",
					"output":10
				},
				{
					"input":7,
					"interpolation":"STEP",
					"output":11
				},
				{
					"input":7,
					"interpolation":"STEP",
					"output":12
				},
				{
					"input":7,
					"interpolation":"STEP",
					"output":13
				},
				{
					"input":7,
					"interpolation":"STEP",
					"output":14
				},
				{
					"input":7,
					"interpolation":"STEP",
					"output":15
				},
				{
					"input":7,
					"interpolation":"STEP",
					"output":16
				},
				{
					"input":7,
					"interpolation":"STEP",
					"output":17
				},
				{
					"input":7,
					"interpolation":"STEP",
					"output":18
				},
				{
					"input":7,
					"interpolation":"STEP",
					"output":19
				},
				{
					"input":7,
					"interpolation":"STEP",
					"output":20
				},
				{
					"input":7,
					"interpolation":"STEP",
					"output":21
				},
				{
					"input":7,
					"interpolation":"STEP",
					"output":22
				},
				{
					"input":7,
					"interpolation":"STEP",
					"output":23
				},
				{
					"input":24,
					"interpolation":"LINEAR",
					"output":25
				},
				{
					"input":7,
					"interpolation":"STEP",
					"output":26
				}
			]
		},
		{
			"channels":[
				{
					"sampler":0,
					"target":{
						"node":5,
						"path":"translation"
					}
				},
				{
					"sampler":1,
					"target":{
						"node":5,
						"path":"rotation"
					}
				},
				{
					"sampler":2,
					"target":{
						"node":5,
						"path":"scale"
					}
				},
				{
					"sampler":3,
					"target":{
						"node":0,
						"path":"translation"
					}
				},
				{
					"sampler":4,
					"target":{
						"node":0,
						"path":"rotation"
					}
				},
				{
					"sampler":5,
					"target":{
						"node":0,
						"path":"scale"
					}
				},
				{
					"sampler":6,
					"target":{
						"node":1,
						"path":"translation"
					}
				},
				{
					"sampler":7,
					"target":{
						"node":1,
						"path":"rotation"
					}
				},
				{
					"sampler":8,
					"target":{
						"node":1,
						"path":"scale"
					}
				},
				{
					"sampler":9,
					"target":{
						"node":2,
						"path":"translation"
					}
				},
				{
					"sampler":10,
					"target":{
						"node":2,
						"path":"rotation"
					}
				},
				{
					"sampler":11,
					"target":{
						"node":2,
						"path":"scale"
					}
				},
				{
					"sampler":12,
					"target":{
						"node":3,
						"path":"translation"
					}
				},
				{
					"sampler":13,
					"target":{
						"node":3,
						"path":"rotation"
					}
				},
				{
					"sampler":14,
					"target":{
						"node":3,
						"path":"scale"
					}
				},
				{
					"sampler":15,
					"target":{
						"node":4,
						"path":"translation"
					}
				},
				{
					"sampler":16,
					"target":{
						"node":4,
						"path":"rotation"
					}
				},
				{
					"sampler":17,
					"target":{
						"node":4,
						"path":"scale"
					}
				}
			],
			"name":"Idle",
			"samplers":[
				{
					"input":27,
					"interpolation":"STEP",
					"output":28
				},
				{
					"input":27,
					"interpolation":"STEP",
					"output":29
				},
				{
					"input":27,
					"interpolation":"STEP",
					"output":30
				},
				{
					"input":27,
					"interpolation":"STEP",
					"output":31
				},
				{
					"input":32,
					"interpolation":"LINEAR",
					"output":33
				},
				{
					"input":27,
					"interpolation":"STEP",
					"output":34
				},
				{
					"input":27,
					"interpolation":"STEP",
					"output":35
				},
				{
					"input":27,
					"interpolation":"STEP",
					"output":36
				},
				{
					"input":27,
					"interpolation":"STEP",
					"output":37
				},
				{
					"input":27,
					"interpolation":"STEP",
					"output":38
				},
				{
					"input":27,
					"interpolation":"STEP",
					"output":39
				},
				{
					"input":27,
					"interpolation":"STEP",
					"output":40
				},
				{
					"input":27,
					"interpolation":"STEP",
					"output":41
				},
				{
					"input":32,
					"interpolation":"LINEAR",
					"output":42
				},
				{
					"input":27,
					"interpolation":"STEP",
					"output":43
				},
				{
					"input":27,
					"interpolation":"STEP",
					"output":44
				},
				{
					"input":32,
					"interpolation":"LINEAR",
					"output":45
				},
				{
					"input":27,
					"interpolation":"STEP",
					"output":46
				}
			]
		},
		{
			"channels":[
				{
					"sampler":0,
					"target":{
						"node":5,
						"path":"translation"
					}
				},
				{
					"sampler":1,
					"target":{
						"node":5,
						"path":"rotation"
					}
				},
				{
					"sampler":2,
					"target":{
						"node":5,
						"path":"scale"
					}
				},
				{
					"sampler":3,
					"target":{
						"node":0,
						"path":"translation"
					}
				},
				{
					"sampler":4,
					"target":{
						"node":0,
						"path":"rotation"
					}
				},
				{
					"sampler":5,
					"target":{
						"node":0,
						"path":"scale"
					}
				},
				{
					"sampler":6,
					"target":{
						"node":1,
						"path":"translation"
					}
				},
				{
					"sampler":7,
					"target":{
						"node":1,
						"path":"rotation"
					}
				},
				{
					"sampler":8,
					"target":{
						"node":1,
						"path":"scale"
					}
				},
				{
					"sampler":9,
					"target":{
						"node":2,
						"path":"translation"
					}
				},
				{
					"sampler":10,
					"target":{
						"node":2,
						"path":"rotation"
					}
				},
				{
					"sampler":11,
					"target":{
						"node":2,
						"path":"scale"
					}
				},
				{
					"sampler":12,
					"target":{
						"node":3,
						"path":"translation"
					}
				},
				{
					"sampler":13,
					"target":{
						"node":3,
						"path":"rotation"
					}
				},
				{
					"sampler":14,
					"target":{
						"node":3,
						"path":"scale"
					}
				},
				{
					"sampler":15,
					"target":{
						"node":4,
						"path":"translation"
					}
				},
				{
					"sampler":16,
					"target":{
						"node":4,
						"path":"rotation"
					}
				},
				{
					"sampler":17,
					"target":{
						"node":4,
						"path":"scale"
					}
				}
			],
			"name":"Walk",
			"samplers":[
				{
					"input":47,
					"interpolation":"STEP",
					"output":48
				},
				{
					"input":47,
					"interpolation":"STEP",
					"output":49
				},
				{
					"input":47,
					"interpolation":"STEP",
					"output":50
				},
				{
					"input":47,
					"interpolation":"STEP",
					"output":51
				},
				{
					"input":47,
					"interpolation":"STEP",
					"output":52
				},
				{
					"input":47,
					"interpolation":"STEP",
					"output":53
				},
				{
					"input":47,
					"interpolation":"LINEAR",
					"output":54
				},
				{
					"input":55,
					"interpolation":"LINEAR",
					"output":56
				},
				{
					"input":47,
					"interpolation":"STEP",
					"output":57
				},
				{
					"input":47,
					"interpolation":"LINEAR",
					"output":58
				},
				{
					"input":55,
					"interpolation":"LINEAR",
					"output":59
				},
				{
					"input":47,
					"interpolation":"LINEAR",
					"output":60
				},
				{
					"input":47,
					"interpolation":"LINEAR",
					"output":61
				},
				{
					"input":55,
					"interpolation":"LINEAR",
					"output":62
				},
				{
					"input":47,
					"interpolation":"STEP",
					"output":63
				},
				{
					"input":47,
					"interpolation":"LINEAR",
					"output":64
				},
				{
					"input":55,
					"interpolation":"LINEAR",
					"output":65
				},
				{
					"input":47,
					"interpolation":"STEP",
					"output":66
				}
			]
		},
		{
			"channels":[
				{
					"sampler":0,
					"target":{
						"node":6,
						"path":"rotation"
					}
				}
			],
			"name":"Steve_02 - Default_0Action",
			"samplers":[
				{
					"input":67,
					"interpolation":"LINEAR",
					"output":68
				}
			]
		}
	],
	"materials":[
		{
			"doubleSided":true,
			"extensions":{
				"KHR_materials_specular":{
					"specularColorFactor":[
						0,
						0,
						0
					]
				}
			},
			"name":"02_-_Default",
			"pbrMetallicRoughness":{
				"baseColorTexture":{
					"index":0
				},
				"metallicRoughnessTexture":{
					"index":1
				}
			}
		}
	],
	"meshes":[
		{
			"name":"Steve_02 - Default_0",
			"primitives":[
				{
					"attributes":{
						"POSITION":0,
						"NORMAL":1,
						"TEXCOORD_0":2,
						"JOINTS_0":3,
						"WEIGHTS_0":4
					},
					"indices":5,
					"material":0
				}
			]
		}
	],
	"textures":[
		{
			"sampler":0,
			"source":0
		},
		{
			"sampler":0,
			"source":1
		}
	],
	"images":[
		{
			"mimeType":"image/png",
			"name":"Image_0",
			"uri":"textures/Image_0.png"
		},
		{
			"mimeType":"image/png",
			"name":"Image_0rm",
			"uri":"textures/Image_0rm.png"
		}
	],
	"skins":[
		{
			"inverseBindMatrices":6,
			"joints":[
				5,
				0,
				1,
				2,
				3,
				4
			],
			"name":"Armature"
		}
	],
	"accessors":[
		{
			"bufferView":0,
			"componentType":5126,
			"count":144,
			"max":[
				0.25005319714546204,
				1.2502670288085938,
				0.5001068711280823
			],
			"min":[
				-0.2500537931919098,
				-0.750160276889801,
				-0.5001066327095032
			],
			"type":"VEC3"
		},
		{
			"bufferView":1,
			"componentType":5126,
			"count":144,
			"type":"VEC3"
		},
		{
			"bufferView":2,
			"componentType":5126,
			"count":144,
			"type":"VEC2"
		},
		{
			"bufferView":3,
			"componentType":5121,
			"count":144,
			"type":"VEC4"
		},
		{
			"bufferView":4,
			"componentType":5126,
			"count":144,
			"type":"VEC4"
		},
		{
			"bufferView":5,
			"componentType":5123,
			"count":216,
			"type":"SCALAR"
		},
		{
			"bufferView":6,
			"componentType":5126,
			"count":6,
			"type":"MAT4"
		},
		{
			"bufferView":7,
			"componentType":5126,
			"count":2,
			"max":[
				0.8333333333333334
			],
			"min":[
				0.041666666666666664
			],
			"type":"SCALAR"
		},
		{
			"bufferView":8,
			"componentType":5126,
			"count":2,
			"type":"VEC3"
		},
		{
			"bufferView":9,
			"componentType":5126,
			"count":2,
			"type":"VEC4"
		},
		{
			"bufferView":10,
			"componentType":5126,
			"count":2,
			"type":"VEC3"
		},
		{
			"bufferView":11,
			"componentType":5126,
			"count":2,
			"type":"VEC3"
		},
		{
			"bufferView":12,
			"componentType":5126,
			"count":2,
			"type":"VEC4"
		},
		{
			"bufferView":13,
			"componentType":5126,
			"count":2,
			"type":"VEC3"
		},
		{
			"bufferView":14,
			"componentType":5126,
			"count":2,
			"type":"VEC3"
		},
		{
			"bufferView":15,
			"componentType":5126,
			"count":2,
			"type":"VEC4"
		},
		{
			"bufferView":16,
			"componentType":5126,
			"count":2,
			"type":"VEC3"
		},
		{
			"bufferView":17,
			"componentType":5126,
			"count":2,
			"type":"VEC3"
		},
		{
			"bufferView":18,
			"componentType":5126,
			"count":2,
			"type":"VEC4"
		},
		{
			"bufferView":19,
			"componentType":5126,
			"count":2,
			"type":"VEC3"
		},
		{
			"bufferView":20,
			"componentType":5126,
			"count":2,
			"type":"VEC3"
		},
		{
			"bufferView":21,
			"componentType":5126,
			"count":2,
			"type":"VEC4"
		},
		{
			"bufferView":22,
			"componentType":5126,
			"count":2,
			"type":"VEC3"
		},
		{
			"bufferView":23,
			"componentType":5126,
			"count":2,
			"type":"VEC3"
		},
		{
			"bufferView":24,
			"componentType":5126,
			"count":20,
			"max":[
				0.8333333333333334
			],
			"min":[
				0.041666666666666664
			],
			"type":"SCALAR"
		},
		{
			"bufferView":25,
			"componentType":5126,
			"count":20,
			"type":"VEC4"
		},
		{
			"bufferView":26,
			"componentType":5126,
			"count":2,
			"type":"VEC3"
		},
		{
			"bufferView":27,
			"componentType":5126,
			"count":2,
			"max":[
				2.125
			],
			"min":[
				0.041666666666666664
			],
			"type":"SCALAR"
		},
		{
			"bufferView":28,
			"componentType":5126,
			"count":2,
			"type":"VEC3"
		},
		{
			"bufferView":29,
			"componentType":5126,
			"count":2,
			"type":"VEC4"
		},
		{
			"bufferView":30,
			"componentType":5126,
			"count":2,
			"type":"VEC3"
		},
		{
			"bufferView":31,
			"componentType":5126,
			"count":2,
			"type":"VEC3"
		},
		{
			"bufferView":32,
			"componentType":5126,
			"count":51,
			"max":[
				2.125
			],
			"min":[
				0.041666666666666664
			],
			"type":"SCALAR"
		},
		{
			"bufferView":33,
			"componentType":5126,
			"count":51,
			"type":"VEC4"
		},
		{
			"bufferView":34,
			"componentType":5126,
			"count":2,
			"type":"VEC3"
		},
		{
			"bufferView":35,
			"componentType":5126,
			"count":2,
			"type":"VEC3"
		},
		{
			"bufferView":36,
			"componentType":5126,
			"count":2,
			"type":"VEC4"
		},
		{
			"bufferView":37,
			"componentType":5126,
			"count":2,
			"type":"VEC3"
		},
		{
			"bufferView":38,
			"componentType":5126,
			"count":2,
			"type":"VEC3"
		},
		{
			"bufferView":39,
			"componentType":5126,
			"count":2,
			"type":"VEC4"
		},
		{
			"bufferView":40,
			"componentType":5126,
			"count":2,
			"type":"VEC3"
		},
		{
			"bufferView":41,
			"componentType":5126,
			"count":2,
			"type":"VEC3"
		},
		{
			"bufferView":42,
			"componentType":5126,
			"count":51,
			"type":"VEC4"
		},
		{
			"bufferView":43,
			"componentType":5126,
			"count":2,
			"type":"VEC3"
		},
		{
			"bufferView":44,
			"componentType":5126,
			"count":2,
			"type":"VEC3"
		},
		{
			"bufferView":45,
			"componentType":5126,
			"count":51,
			"type":"VEC4"
		},
		{
			"bufferView":46,
			"componentType":5126,
			"count":2,
			"type":"VEC3"
		},
		{
			"bufferView":47,
			"componentType":5126,
			"count":2,
			"max":[
				1
			],
			"min":[
				0
			],
			"type":"SCALAR"
		},
		{
			"bufferView":48,
			"componentType":5126,
			"count":2,
			"type":"VEC3"
		},
		{
			"bufferView":49,
			"componentType":5126,
			"count":2,
			"type":"VEC4"
		},
		{
			"bufferView":50,
			"componentType":5126,
			"count":2,
			"type":"VEC3"
		},
		{
			"bufferView":51,
			"componentType":5126,
			"count":2,
			"type":"VEC3"
		},
		{
			"bufferView":52,
			"componentType":5126,
			"count":2,
			"type":"VEC4"
		},
		{
			"bufferView":53,
			"componentType":5126,
			"count":2,
			"type":"VEC3"
		},
		{
			"bufferView":54,
			"componentType":5126,
			"count":2,
			"type":"VEC3"
		},
		{
			"bufferView":55,
			"componentType":5126,
			"count":25,
			"max":[
				1
			],
			"min":[
				0
			],
			"type":"SCALAR"
		},
		{
			"bufferView":56,
			"componentType":5126,
			"count":25,
			"type":"VEC4"
		},
		{
			"bufferView":57,
			"componentType":5126,
			"count":2,
			"type":"VEC3"
		},
		{
			"bufferView":58,
			"componentType":5126,
			"count":2,
			"type":"VEC3"
		},
		{
			"bufferView":59,
			"componentType":5126,
			"count":25,
			"type":"VEC4"
		},
		{
			"bufferView":60,
			"componentType":5126,
			"count":2,
			"type":"VEC3"
		},
		{
			"bufferView":61,
			"componentType":5126,
			"count":2,
			"type":"VEC3"
		},
		{
			"bufferView":62,
			"componentType":5126,
			"count":25,
			"type":"VEC4"
		},
		{
			"bufferView":63,
			"componentType":5126,
			"count":2,
			"type":"VEC3"
		},
		{
			"bufferView":64,
			"componentType":5126,
			"count":2,
			"type":"VEC3"
		},
		{
			"bufferView":65,
			"componentType":5126,
			"count":25,
			"type":"VEC4"
		},
		{
			"bufferView":66,
			"componentType":5126,
			"count":2,
			"type":"VEC3"
		},
		{
			"bufferView":67,
			"componentType":5126,
			"count":1,
			"max":[
				0
			],
			"min":[
				0
			],
			"type":"SCALAR"
		},
		{
			"bufferView":68,
			"componentType":5126,
			"count":1,
			"type":"VEC4"
		}
	],
	"bufferViews":[
		{
			"buffer":0,
			"byteLength":1728,
			"byteOffset":0,
			"target":34962
		},
		{
			"buffer":0,
			"byteLength":1728,
			"byteOffset":1728,
			"target":34962
		},
		{
			"buffer":0,
			"byteLength":1152,
			"byteOffset":3456,
			"target":34962
		},
		{
			"buffer":0,
			"byteLength":576,
			"byteOffset":4608,
			"target":34962
		},
		{
			"buffer":0,
			"byteLength":2304,
			"byteOffset":5184,
			"target":34962
		},
		{
			"buffer":0,
			"byteLength":432,
			"byteOffset":7488,
			"target":34963
		},
		{
			"buffer":0,
			"byteLength":384,
			"byteOffset":7920
		},
		{
			"buffer":0,
			"byteLength":8,
			"byteOffset":8304
		},
		{
			"buffer":0,
			"byteLength":24,
			"byteOffset":8312
		},
		{
			"buffer":0,
			"byteLength":32,
			"byteOffset":8336
		},
		{
			"buffer":0,
			"byteLength":24,
			"byteOffset":8368
		},
		{
			"buffer":0,
			"byteLength":24,
			"byteOffset":8392
		},
		{
			"buffer":0,
			"byteLength":32,
			"byteOffset":8416
		},
		{
			"buffer":0,
			"byteLength":24,
			"byteOffset":8448
		},
		{
			"buffer":0,
			"byteLength":24,
			"byteOffset":8472
		},
		{
			"buffer":0,
			"byteLength":32,
			"byteOffset":8496
		},
		{
			"buffer":0,
			"byteLength":24,
			"byteOffset":8528
		},
		{
			"buffer":0,
			"byteLength":24,
			"byteOffset":8552
		},
		{
			"buffer":0,
			"byteLength":32,
			"byteOffset":8576
		},
		{
			"buffer":0,
			"byteLength":24,
			"byteOffset":8608
		},
		{
			"buffer":0,
			"byteLength":24,
			"byteOffset":8632
		},
		{
			"buffer":0,
			"byteLength":32,
			"byteOffset":8656
		},
		{
			"buffer":0,
			"byteLength":24,
			"byteOffset":8688
		},
		{
			"buffer":0,
			"byteLength":24,
			"byteOffset":8712
		},
		{
			"buffer":0,
			"byteLength":80,
			"byteOffset":8736
		},
		{
			"buffer":0,
			"byteLength":320,
			"byteOffset":8816
		},
		{
			"buffer":0,
			"byteLength":24,
			"byteOffset":9136
		},
		{
			"buffer":0,
			"byteLength":8,
			"byteOffset":9160
		},
		{
			"buffer":0,
			"byteLength":24,
			"byteOffset":9168
		},
		{
			"buffer":0,
			"byteLength":32,
			"byteOffset":9192
		},
		{
			"buffer":0,
			"byteLength":24,
			"byteOffset":9224
		},
		{
			"buffer":0,
			"byteLength":24,
			"byteOffset":9248
		},
		{
			"buffer":0,
			"byteLength":204,
			"byteOffset":9272
		},
		{
			"buffer":0,
			"byteLength":816,
			"byteOffset":9476
		},
		{
			"buffer":0,
			"byteLength":24,
			"byteOffset":10292
		},
		{
			"buffer":0,
			"byteLength":24,
			"byteOffset":10316
		},
		{
			"buffer":0,
			"byteLength":32,
			"byteOffset":10340
		},
		{
			"buffer":0,
			"byteLength":24,
			"byteOffset":10372
		},
		{
			"buffer":0,
			"byteLength":24,
			"byteOffset":10396
		},
		{
			"buffer":0,
			"byteLength":32,
			"byteOffset":10420
		},
		{
			"buffer":0,
			"byteLength":24,
			"byteOffset":10452
		},
		{
			"buffer":0,
			"byteLength":24,
			"byteOffset":10476
		},
		{
			"buffer":0,
			"byteLength":816,
			"byteOffset":10500
		},
		{
			"buffer":0,
			"byteLength":24,
			"byteOffset":11316
		},
		{
			"buffer":0,
			"byteLength":24,
			"byteOffset":11340
		},
		{
			"buffer":0,
			"byteLength":816,
			"byteOffset":11364
		},
		{
			"buffer":0,
			"byteLength":24,
			"byteOffset":12180
		},
		{
			"buffer":0,
			"byteLength":8,
			"byteOffset":12204
		},
		{
			"buffer":0,
			"byteLength":24,
			"byteOffset":12212
		},
		{
			"buffer":0,
			"byteLength":32,
			"byteOffset":12236
		},
		{
			"buffer":0,
			"byteLength":24,
			"byteOffset":12268
		},
		{
			"buffer":0,
			"byteLength":24,
			"byteOffset":12292
		},
		{
			"buffer":0,
			"byteLength":32,
			"byteOffset":12316
		},
		{
			"buffer":0,
			"byteLength":24,
			"byteOffset":12348
		},
		{
			"buffer":0,
			"byteLength":24,
			"byteOffset":12372
		},
		{
			"buffer":0,
			"byteLength":100,
			"byteOffset":12396
		},
		{
			"buffer":0,
			"byteLength":400,
			"byteOffset":12496
		},
		{
			"buffer":0,
			"byteLength":24,
			"byteOffset":12896
		},
		{
			"buffer":0,
			"byteLength":24,
			"byteOffset":12920
		},
		{
			"buffer":0,
			"byteLength":400,
			"byteOffset":12944
		},
		{
			"buffer":0,
			"byteLength":24,
			"byteOffset":13344
		},
		{
			"buffer":0,
			"byteLength":24,
			"byteOffset":13368
		},
		{
			"buffer":0,
			"byteLength":400,
			"byteOffset":13392
		},
		{
			"buffer":0,
			"byteLength":24,
			"byteOffset":13792
		},
		{
			"buffer":0,
			"byteLength":24,
			"byteOffset":13816
		},
		{
			"buffer":0,
			"byteLength":400,
			"byteOffset":13840
		},
		{
			"buffer":0,
			"byteLength":24,
			"byteOffset":14240
		},
		{
			"buffer":0,
			"byteLength":4,
			"byteOffset":14264
		},
		{
			"buffer":0,
			"byteLength":16,
			"byteOffset":14268
		}
	],
	"samplers":[
		{
			"magFilter":9728,
			"minFilter":9984
		}
	],
	"buffers":[
		{
			"byteLength":14284,
			"uri":"Steve.bin"
		}
	]
}
